<?xml version="1.0" encoding="utf-8"?>
<!-- Generator: Adobe Illustrator 16.0.0, SVG Export Plug-In . SVG Version: 6.00 Build 0)  -->
<!DOCTYPE svg PUBLIC "-//W3C//DTD SVG 1.1//EN" "http://www.w3.org/Graphics/SVG/1.1/DTD/svg11.dtd">
<svg version="1.1" id="Layer_1" xmlns="http://www.w3.org/2000/svg" xmlns:xlink="http://www.w3.org/1999/xlink" x="0px" y="0px"
	 width="100%" height="100%" viewBox="0 13.678 100 72.644" enable-background="new 0 13.678 100 72.644" xml:space="preserve"
	>
<g>
	<polygon points="39.062,74.928 40.625,74.928 40.625,66.49 39.062,66.49 	"/>
	<polygon points="45.312,65.865 45.312,74.928 46.25,74.615 46.25,65.865 46.875,65.865 46.875,74.615 47.812,74.615 47.812,65.865 
			"/>
	<path d="M56.453,13.678L0.234,26.494L0,34.75l3.413-0.612v47.271l13.703,1.257v-1.238l1.534,0.132v-2.041l1.388,0.104v-1.713h1.534
		v-1.328v-0.016l-5.516-0.325l-0.325-0.019V64.685l6.934-0.025v9.278l0.962,0.044V52.44l9.241-0.612v22.565l0.738,0.034V66.3v-1.771
		l8.356-0.034h0.4l7.131,0.065l-0.116,10.056v2.973l-7.406,0.337l-8.362-0.54v2.212l-1.734-0.118v1.399l-1.565-0.122v1.804
		l-1.731-0.15v1.312l28.291,2.601l40.646-3.625V30.919L100,31.378v-7.719L56.453,13.678z M16.906,64.057l-8.234,0.059V53.731
		l8.234-0.538V64.057z M17.284,46.819l-8.269,0.819V37.231l8.269-1.297V46.819z M33.025,45.022l-9.678,0.972V34.753l9.678-1.528
		V45.022z M40.444,32.116l11.509-1.819v12.897l-11.509,1.15V32.087V32.116z M52.197,63.578l-11.535,0.094v-12.24l11.535-0.766
		V63.578z M61.719,29.812l12.753,2.05v12.635l-12.753-1.278V29.812z M62.225,50.547L74.922,51.4v12.605l-12.697-0.084V50.547z
		 M75.51,77.112l-12.801,0.719v-5.946L75.51,71.51V77.112z M82.716,33.631l10.509,1.666V46.8l-10.509-1.031V33.631L82.716,33.631z
		 M93.409,76.503l-10.634,0.622v-5.406l10.634-0.331V76.503z M93.597,64.615l-10.469-0.047V52.396l10.469,0.682v11.475V64.615z"/>
	<polygon points="36.562,74.615 36.562,66.49 35,66.49 35,74.615 	"/>
	<polygon points="44.688,65.865 43.438,65.865 43.438,74.928 44.688,74.928 	"/>
	<polygon points="36.875,74.615 38.75,74.615 38.75,66.49 36.875,66.49 	"/>
	<polygon points="20,66.49 18.438,66.49 18.438,73.99 20,73.99 	"/>
	<polygon points="21.562,66.49 20.312,66.49 20.312,73.99 21.562,73.99 	"/>
	<polygon points="18.125,66.49 16.875,66.49 16.875,73.678 18.125,73.678 	"/>
</g>
</svg>
