<?xml version="1.0" encoding="utf-8"?>
<!-- Generator: Adobe Illustrator 16.0.0, SVG Export Plug-In . SVG Version: 6.00 Build 0)  -->
<!DOCTYPE svg PUBLIC "-//W3C//DTD SVG 1.1//EN" "http://www.w3.org/Graphics/SVG/1.1/DTD/svg11.dtd">
<svg version="1.1" id="Layer_1" xmlns="http://www.w3.org/2000/svg" xmlns:xlink="http://www.w3.org/1999/xlink" x="0px" y="0px"
	 width="100%" height="100%" viewBox="0 18.772 100 62.459" enable-background="new 0 18.772 100 62.459" xml:space="preserve"
	>
<path d="M72.135,39.256v-8.819l2.922,0.344v-6.609l-35.278-5.4L0,26.344v7.728l3.688-0.512v21.475l10.697-0.003v20.044l50.785,6.156
	l8.984-1.091V54.416l15.959,0.05v23.737l7.416-0.9V45.94L100,46.062v-4.7L72.135,39.256z M68.541,33.491v7.734l-10.629,0.197v-9.013
	L68.541,33.491z M9.212,34.753l24.122-3.059v17.219l-24.122,0.8V34.753z M19.122,70.519V55.031h9.943v16.391L19.122,70.519z
	 M31.594,71.591V55.025h8.181v-0.028h3.322v17.638L31.594,71.591z M45.522,72.956V55l13.394,0.003v19.175L45.522,72.956z"/>
</svg>
