<?xml version="1.0" encoding="utf-8"?>
<!-- Generator: Adobe Illustrator 16.0.0, SVG Export Plug-In . SVG Version: 6.00 Build 0)  -->
<!DOCTYPE svg PUBLIC "-//W3C//DTD SVG 1.1//EN" "http://www.w3.org/Graphics/SVG/1.1/DTD/svg11.dtd">
<svg version="1.1" id="Layer_1" xmlns="http://www.w3.org/2000/svg" xmlns:xlink="http://www.w3.org/1999/xlink" x="0px" y="0px"
	 width="100%" height="100%" viewBox="0 15.872 100 68.256" enable-background="new 0 15.872 100 68.256" xml:space="preserve"
	>
<g>
	<polygon points="40.625,33.685 53.125,18.685 69.062,38.06 78.438,39.31 87.188,26.497 97.188,43.997 100,43.997 88.125,23.685 
		63.75,27.747 53.438,15.872 9.688,28.372 0,39.31 0,41.497 	"/>
	<path d="M86.997,28.45l-8.013,11.922l-10.459-1.234L53.053,20.281L41.075,34.444L3.606,41.891v37.916l37.203,4.321l24.571-2.509
		v0.006l4.141-0.3V59.854l9.981,0.3v20.456l5.731-0.412l0,0l11.203-1.263V44.353L86.997,28.45z M28.234,41.234l7.163-1.172v5.319
		l-7.163,0.922V41.234z M28.234,50.325l7.163-0.725v5.319l-7.163,0.475V50.325z M17.331,43.041l6.106-0.997v4.903l-6.106,0.785
		V43.041z M17.331,51.456l6.106-0.622v4.903l-6.106,0.406V51.456z M7.953,44.594l5.275-0.859v4.547l-5.275,0.678V44.594z
		 M7.953,52.435l5.275-0.531v4.547l-5.275,0.347v-4.375V52.435z M7.906,60.146l5.269-0.206v4.547L7.906,64.51V60.146z
		 M13.275,72.693L8,72.388v-4.366l5.275,0.122V72.693z M17.275,59.756l6.103-0.243v4.899l-6.103,0.031V59.756z M23.497,73.26
		l-6.113-0.351v-4.693l6.113,0.141V73.26z M28.175,59.297l7.153-0.287v5.315l-7.153,0.037V59.297z M35.466,73.925L28.3,73.513V68.44
		l7.166,0.166V73.925z M59.375,41.81l6.394,1.059v4.959l-6.394-0.753v-5.194V41.81z M47.531,39.997l7.487,1.237v5.353l-7.487-0.959
		V39.997z M47.44,49.406l7.497,0.775v5.36l-7.497-0.497V49.406z M55.003,73.597l-7.49,0.44v-5.634l7.49-0.163V73.597z
		 M55.084,64.635L47.6,64.609v-5.631l7.484,0.312V64.635z M56.7,34.931l-5.422-1.159v-6.841l5.422,1.406V34.931z M59.3,50.565
		l6.4,0.663v4.956l-6.4-0.425V50.565z M65.753,72.896l-6.394,0.372v-5.196l6.394-0.135V72.896z M65.822,64.606l-6.388-0.025v-5.193
		l6.388,0.263V64.606z M89.409,46.81l3.984,0.662v3.935l-3.984-0.516v-4.065V46.81z M82.229,45.69l4.509,0.747v4.182l-4.509-0.582
		V45.69z M82.175,52.956l4.513,0.469v4.182l-4.513-0.304V52.956z M86.729,71.697l-4.513,0.262v-4.347l4.513-0.097V71.697z
		 M86.778,64.706l-4.507-0.019v-4.347l4.507,0.312V64.706z M88.56,40.853l-3.19-0.7v-5.222l3.19,0.844V40.853z M89.362,53.646
		l3.987,0.416V58l-3.987-0.269V53.646z M93.388,71.256L89.4,71.487v-4.084l3.987-0.081V71.256z M93.428,64.675l-3.98-0.016v-4.081
		l3.98,0.162V64.675z"/>
</g>
</svg>
