<?xml version="1.0" encoding="utf-8"?>
<!-- Generator: Adobe Illustrator 16.0.0, SVG Export Plug-In . SVG Version: 6.00 Build 0)  -->
<!DOCTYPE svg PUBLIC "-//W3C//DTD SVG 1.1//EN" "http://www.w3.org/Graphics/SVG/1.1/DTD/svg11.dtd">
<svg version="1.1" id="Layer_1" xmlns="http://www.w3.org/2000/svg" xmlns:xlink="http://www.w3.org/1999/xlink" x="0px" y="0px"
	 width="91.684px" height="91.667px" viewBox="4.15 4.435 91.684 91.667" enable-background="new 4.15 4.435 91.684 91.667"
	 xml:space="preserve">
<g>
	<path d="M50,96.102c25.272,0,45.834-20.561,45.834-45.833S75.272,4.45,50,4.435S4.167,25,4.15,50.25S24.728,96.1,50,96.102z
		 M50,7.935c4.486,0,8.8,0.7,12.85,2.006c-1.158,1.65-1.336-0.654-1.694,0.3c-0.367,0.986-1.273,1.283-1.536,1.27
		c-0.518,0.78-0.992,1.6-1.505,2.362c-0.542,0.099-1.044,0.2-1.548,0.3c-0.207,0.032-0.358,0.11-0.492,0.271
		c-0.553,0.657-1.121,1.301-1.673,1.958c-0.484,0.577-0.954,1.165-1.433,1.75c-0.064,0.079-0.142,0.146-0.212,0.218
		c-0.367-0.134-0.657-0.344-0.923-0.593c-0.459-0.43-0.781-0.952-1.023-1.526c-0.324-0.768-0.507-1.571-0.6-2.399
		c-0.027-0.249-0.007-0.471,0.085-0.703c0.296-0.74,0.572-1.488,0.872-2.227c0.087-0.213,0.058-0.373-0.116-0.539
		c-0.523,0.027-1.06-0.12-1.612,0.052c0.055,0.15,0.1,0.25,0.15,0.35c0.169,0.35,0.35,0.75,0.5,1.107
		c0.035,0.1,0.05,0.15,0.05,0.253c-0.469,0.361-0.932,0.697-1.372,1.05c-0.438,0.363-0.828,0.784-1.289,1.143
		c-0.218-0.419-0.56-0.689-0.911-0.946c-0.587-0.432-0.383-0.357-1.113-0.333c-0.495,0.017-0.988,0.048-1.454,0.254
		c-0.251,0.111-0.528,0.107-0.8,0.093c-0.207-0.011-0.379-0.089-0.505-0.257c-0.036-0.048-0.065-0.102-0.102-0.149
		c-0.116-0.15-0.274-0.189-0.444-0.131c-0.141,0.048-0.283,0.108-0.406,0.2c-0.21,0.144-0.418,0.298-0.604,0.471
		c-0.234,0.216-0.485,0.404-0.751,0.574c-0.406,0.259-0.807,0.527-1.215,0.8c-0.151,0.094-0.243,0.208-0.269,0.39
		c-0.039,0.282-0.117,0.56-0.146,0.844c-0.038,0.375-0.049,0.75,0.05,1.1c0.165,0.5,0.6,0.7,1.05,0.525
		c0.582-0.215,1.127-0.501,1.614-0.89c0.322-0.257,0.589-0.558,0.737-0.952c0.026-0.07,0.058-0.14,0.098-0.202
		c0.087-0.136,0.199-0.17,0.346-0.105c0.124,0.05,0.25,0.1,0.35,0.2c0.307,0.15,0.6,0.15,0.907-0.029
		c0.156-0.089,0.305-0.193,0.444-0.307c0.128-0.104,0.241-0.227,0.356-0.345c0.192-0.196,0.415-0.349,0.668-0.452
		c0.477-0.193,0.819-0.104,1.1,0.325c0.209,0.35,0.5,0.6,0.8,0.8c0.137,0.1,0.25,0.2,0.4,0.307c0.188,0.2,0.25,0.4,0.2,0.66
		c-0.067,0.284-0.208,0.53-0.36,0.75c-0.127,0.204-0.259,0.406-0.374,0.618c-0.056,0.104-0.089,0.223-0.112,0.339
		c-0.025,0.1,0.1,0.25,0.2,0.25c0.162-0.027,0.318-0.082,0.477-0.126c0.095-0.025,0.188-0.051,0.33-0.09
		c-0.053,0.938-0.194,1.804-0.645,2.6c-0.081,0.143-0.183,0.279-0.3,0.393c-0.335,0.325-0.731,0.46-1.199,0.345
		c-0.325-0.079-0.623-0.196-0.878-0.43c-0.5-0.458-0.963-0.404-1.414,0.086c-0.141,0.153-0.265,0.331-0.36,0.516
		c-0.1,0.193-0.245,0.288-0.443,0.35c-0.881,0.238-1.772,0.339-2.68,0.219c-0.152-0.021-0.293-0.013-0.442,0.032
		c-0.576,0.174-1.155,0.334-1.733,0.5c-0.232,0.066-0.451,0.157-0.659,0.285c-0.386,0.237-0.792,0.434-1.225,0.57
		c-0.438,0.138-0.88,0.213-1.304-0.093c-1.377,1.15-2.909,1.992-4.617,2.536c-0.101,0.639-0.199,1.261-0.297,1.884
		c-0.12,0.758-0.238,1.516-0.36,2.25c-0.031,0.191-0.109,0.265-0.285,0.294c-0.206,0.034-0.401-0.002-0.537-0.164
		c-0.134-0.159-0.261-0.332-0.355-0.516c-0.242-0.473-0.388-0.984-0.443-1.508c-0.078-0.733-0.464-1.228-1.097-1.544
		c-0.832-0.417-1.722-0.556-2.634-0.396c-1.499,0.264-2.781,0.964-3.812,2.083c-0.872,0.945-0.862,0.945-1.106,2.254
		c-0.085,0.457-0.095,0.95,0.05,1.4c0.15,0.45,0.45,0.75,0.95,0.865c0.255,0.05,0.5,0.1,0.75,0.024
		c0.279-0.06,1.021-0.207,1.096-0.177c0.211,0.1,0.4,0.2,0.55,0.398c0.177,0.25,0.25,0.5,0.1,0.762
		c-0.094,0.211-0.227,0.394-0.399,0.55c-0.217,0.185-0.882,0.655-0.969,0.736c-0.369,0.346-0.363,0.75,0,1.089
		c0.09,0.1,0.2,0.15,0.3,0.2c0.086,0.05,0.2,0.1,0.3,0.161c-0.025,0.273-0.042,0.527-0.073,0.779c-0.079,0.661-0.083,1.324-0.047,2
		c0.034,0.65,0.3,1.15,0.8,1.542c0.339,0.25,0.7,0.45,1.05,0.666c0.208,0.1,0.45,0.2,0.7,0.25c0.681,0.2,1.3,0.05,1.782-0.477
		c0.208-0.212,0.377-0.467,0.537-0.721c0.295-0.469,0.725-0.667,1.265-0.558c0.291,0.05,0.55,0.2,0.75,0.402
		c0.252,0.25,0.55,0.4,0.85,0.558c0.42,0.2,0.85,0.4,1.25,0.6c0.148,0.05,0.3,0.1,0.45,0.161c1.188,0.3,2.2,0.85,2.95,1.86
		c0.156,0.2,0.35,0.3,0.55,0.4c1.117,0.4,2.15,0.95,3.05,1.705c1.156,0.95,2,2.1,2.45,3.54c0.105,0.35,0.25,0.6,0.5,0.9
		c0.242,0.25,0.45,0.55,0.65,0.826c0.245,0.4,0.45,0.8,0.7,1.221c0.057,0.1,0.1,0.2,0.15,0.3c0.217,0.05,0.4,0.101,0.6,0.12
		c1.273,0.301,2.45,0.75,3.55,1.477c0.565,0.399,1.05,0.85,1.5,1.35c0.12,0.15,0.2,0.3,0.2,0.486
		c0.026,1.717-0.597,3.11-2.028,4.102c-0.184,0.127-0.294,0.281-0.37,0.5c-0.369,1.002-0.746,2.002-1.128,2.998
		c-0.069,0.181-0.161,0.357-0.272,0.516c-0.504,0.713-1.024,1.414-1.526,2.149c-0.161,0.229-0.354,0.406-0.599,0.534
		c-0.187,0.097-0.372,0.197-0.562,0.287c-0.696,0.33-1.425,0.564-2.178,0.701c-0.199,0.041-0.355,0.117-0.485,0.289
		c-0.499,0.662-1.014,1.311-1.522,1.964c-0.056,0.071-0.113,0.143-0.156,0.2c-0.487,0.902-1.084,1.734-1.645,2.591
		c-0.127,0.193-0.283,0.345-0.475,0.472c-0.815,0.541-1.63,1.084-2.438,1.65c-0.235,0.16-0.458,0.342-0.666,0.537
		c-0.407,0.381-0.803,0.773-1.195,1.169c-0.104,0.104-0.2,0.228-0.262,0.351c-0.38,0.818-0.746,1.644-1.125,2.463
		c-0.081,0.174-0.096,0.34-0.061,0.523c0.256,1.351,0.5,2.701,0.75,4.101c0.029,0.149,0.05,0.3,0.05,0.48
		c-0.344,0.014-0.345,0.015-0.672-0.124c-0.575-0.244-1.078-0.599-1.542-1.011c-1.06-0.941-1.863-2.083-2.571-3.299
		c-0.066-0.112-0.1-0.252-0.119-0.384c-0.157-1.072-0.31-2.145-0.458-3.217c-0.019-0.139-0.065-0.258-0.143-0.373
		c-0.178-0.268-0.258-0.572-0.317-0.885c-0.139-0.739-0.057-1.471,0.051-2.202c0.129-0.862,0.26-1.726,0.39-2.588
		c0.019-0.122,0.01-0.231-0.07-0.34c-0.212-0.29-0.275-0.628-0.295-0.979c-0.038-0.67,0.079-1.318,0.248-1.962
		c0.061-0.232,0.116-0.468,0.151-0.704c0.115-0.774,0.222-1.549,0.328-2.324c0.045-0.326,0.079-0.652,0.115-0.962
		c-0.07-0.063-0.113-0.106-0.159-0.146c-0.433-0.363-0.687-0.828-0.792-1.38c-0.075-0.39-0.074-0.778-0.003-1.167
		c0.054-0.291,0.123-0.58,0.186-0.875c-0.152-0.104-0.289-0.196-0.423-0.291c-0.655-0.463-1.264-0.977-1.773-1.598
		c-0.525-0.641-1.045-1.286-1.55-1.941c-0.201-0.261-0.382-0.543-0.53-0.837c-0.242-0.479-0.362-0.989-0.239-1.53
		c0.029-0.125,0.003-0.234-0.038-0.351c-0.31-0.868-0.347-1.767-0.277-2.675c0.048-0.624,0.214-1.213,0.57-1.739
		c0.219-0.324,0.427-0.656,0.652-0.976c0.398-0.566,0.802-1.13,1.21-1.688c0.399-0.547,0.625-1.159,0.742-1.822
		c0.053-0.299,0.085-0.598,0.056-0.898c-0.045-0.465-0.207-0.874-0.609-1.16c-0.441-0.313-0.866-0.65-1.313-0.955
		c-0.231-0.158-0.339-0.361-0.4-0.621c-0.144-0.615-0.313-1.224-0.453-1.84c-0.049-0.218-0.141-0.386-0.313-0.527
		c-0.268-0.22-0.522-0.455-0.781-0.685c-0.1-0.089-0.194-0.183-0.289-0.273c0.02-0.572,0.174-1.113,0.184-1.68
		c-0.151-0.064-0.288-0.121-0.424-0.179c-0.681-0.292-1.326-0.644-1.904-1.11c-0.354-0.286-0.671-0.606-0.914-0.993
		c-0.313-0.5-0.468-1.037-0.377-1.634c0.063-0.416,0.112-0.835,0.165-1.253c0.042-0.328,0.083-0.657,0.119-0.986
		c0.006-0.053,0.017-0.125-0.072-0.134c0,0,0.292-0.52-0.972-2.078c-0.095-0.117-0.176-0.242-0.25-0.369
		C22.104,15.6,35.15,7.95,50,7.935z M71.926,86.471c0.976-1.021,1.661-2.119,1.02-2.974c-0.354-0.341-0.325-0.747-0.185-1.167
		c0.081-0.242,0.154-0.49,0.257-0.723c0.311-0.7,0.635-1.396,0.954-2.094c0.351-0.766,0.702-1.531,1.054-2.296
		c0.217-0.47,0.246-0.952,0.137-1.454c-0.129-0.588-0.24-1.18-0.357-1.77c-0.118-0.585-0.125-1.168,0.076-1.737
		c0.382-1.074,0.896-2.069,1.729-2.876c0.259-0.251,0.498-0.523,0.732-0.798c0.305-0.358,0.536-0.763,0.701-1.204
		c0.21-0.561,0.285-1.129,0.168-1.727c-0.09-0.462-0.255-0.896-0.406-1.336c-0.129-0.369-0.264-0.736-0.373-1.111
		c-0.176-0.604-0.201-1.22-0.035-1.829c0.107-0.392,0.246-0.774,0.381-1.156c0.142-0.396,0.303-0.786,0.444-1.183
		c0.184-0.516,0.288-1.049,0.235-1.596c-0.036-0.373-0.101-0.746-0.189-1.109c-0.097-0.391-0.264-0.461-0.627-0.316
		c-0.141,0.055-0.275,0.122-0.413,0.181c-0.429,0.184-0.7,0.104-0.913-0.206c-0.16-0.231-0.396-0.369-0.665-0.44
		c-0.231-0.061-0.466-0.137-0.702-0.153c-0.797-0.059-1.595-0.025-2.393,0c-0.585,0.035-1.172,0.053-1.758,0.062
		c-0.178,0.004-0.358-0.037-0.535-0.068c-0.477-0.089-0.924-0.264-1.359-0.471c-0.793-0.377-1.51-0.872-2.197-1.414
		c-1.113-0.879-2.111-1.884-3.131-2.865c-0.137-0.131-0.222-0.289-0.267-0.462c-0.057-0.218-0.103-0.441-0.122-0.664
		c-0.089-1.029,0.038-2.043,0.227-3.053c0.201-1.081,0.48-2.142,0.788-3.196c0.173-0.595,0.27-1.203,0.265-1.825
		c-0.002-0.259-0.021-0.513-0.158-0.74c-0.121-0.2-0.115-0.407-0.025-0.606c0.148-0.329,0.289-0.665,0.479-0.97
		c0.638-1.033,1.562-1.694,2.73-2.009c0.259-0.07,0.458-0.188,0.629-0.396c0.436-0.539,0.896-1.057,1.328-1.597
		c0.15-0.187,0.322-0.295,0.549-0.361c0.678-0.197,1.352-0.409,2.026-0.617c0.593-0.183,1.198-0.279,1.817-0.303
		c1.127-0.044,2.201,0.1,3.301,0.494c0.177,0.05,0.35,0.05,0.55,0.05c0.633-0.009,1.265-0.016,1.899,0.085
		c0.602,0.1,1.15,0.25,1.65,0.663c0.861,0.7,1.75,1.35,2.65,2.05c0.486,0.35,0.5,0.4,1.1,0.361c0.934-0.021,1.867-0.021,2.801,0.178
		c0.039,0,0.084-0.012,0.152-0.024c-0.01-0.123-0.004-0.242-0.03-0.354c-0.095-0.411-0.203-0.821-0.409-1.191
		c-0.154-0.274-0.316-0.55-0.517-0.791c-0.411-0.494-0.946-0.778-1.599-0.822c-0.18-0.012-0.359-0.036-0.537-0.068
		c-0.512-0.093-0.889-0.368-1.074-0.86c-0.085-0.223-0.123-0.464-0.189-0.694c-0.023-0.08-0.066-0.154-0.104-0.241
		c-0.062,0.038-0.107,0.053-0.135,0.1c-0.081,0.09-0.156,0.183-0.229,0.279c-0.092,0.119-0.171,0.249-0.269,0.362
		c-0.317,0.371-0.572,0.348-0.801-0.071c-0.051-0.092-0.094-0.189-0.131-0.288c-0.053-0.141-0.096-0.285-0.148-0.426
		c-0.072-0.197-0.139-0.398-0.227-0.588c-0.173-0.369-0.336-0.386-0.584-0.078c-0.047,0.059-0.086,0.124-0.137,0.179
		c-0.082,0.088-0.162,0.18-0.257,0.25c-0.325,0.255-0.659,0.255-0.994,0.007c-0.06-0.044-0.112-0.1-0.169-0.15
		c-0.154-0.139-0.228-0.303-0.22-0.519c0.01-0.27,0.003-0.543-0.024-0.812c-0.017-0.161-0.074-0.321-0.136-0.472
		c-0.05-0.124-0.196-0.156-0.306-0.078c-0.109,0.077-0.208,0.169-0.33,0.269c-0.136-0.057-0.273-0.111-0.408-0.173
		c-0.589-0.267-1.175-0.541-1.766-0.803c-0.203-0.09-0.391-0.193-0.562-0.42c-0.317,1.06-0.346,2.102-0.497,3.145
		c-0.111,0.035-0.222,0.076-0.337,0.1c-0.494,0.126-0.994,0.233-1.485,0.375c-0.802,0.231-1.513,0.071-2.161-0.438
		c-0.469-0.369-0.832-0.827-1.125-1.341c-0.373-0.653-0.734-1.314-1.098-1.973c-0.043-0.077-0.074-0.159-0.114-0.245
		c0.167-0.185,0.386-0.257,0.577-0.368c0.88-0.505,1.812-0.804,2.842-0.703c0.126,0,0.237-0.01,0.34-0.086
		c0.072-0.053,0.153-0.095,0.23-0.144c0.381-0.242,0.803-0.439,1.131-0.739c0.339-0.311,0.591-0.719,0.873-1.09
		c0.115-0.153,0.26-0.291,0.332-0.484c-0.133-0.309-0.251-0.618-0.396-0.915c-0.118-0.242-0.142-0.485-0.1-0.744
		c0.051-0.312,0.1-0.625,0.139-0.938c0.014-0.114,0.064-0.238-0.049-0.358c-0.49-0.067-0.995-0.154-1.502-0.198
		c-0.243-0.021-0.385-0.122-0.496-0.322c-0.152-0.276-0.331-0.539-0.479-0.818c-0.104-0.196-0.256-0.28-0.467-0.301
		c-0.283-0.029-0.566-0.083-0.851-0.1c-0.231-0.013-0.398-0.113-0.544-0.278c-0.225-0.253-0.363-0.552-0.467-0.869
		c-0.146-0.447-0.195-0.911-0.231-1.377c-0.046-0.602-0.021-1.202,0.074-1.825c0.117-0.023,0.231-0.052,0.348-0.066
		c0.119-0.015,0.24-0.01,0.36-0.021c0.104-0.009,0.209-0.03,0.312-0.042c0.12-0.014,0.24-0.02,0.359-0.035
		c0.11-0.014,0.25,0,0.335-0.071c0,0,1,0.15,1.185-1.056c0.019-0.125,0.062-0.247,0.12-0.364c11.769,7.55,19.601,20.7,19.601,35.7
		C92.334,65.6,84.15,79.05,71.95,86.471H71.926z"/>
</g>
</svg>
