<svg xmlns="http://www.w3.org/2000/svg" xmlns:xlink="http://www.w3.org/1999/xlink" version="1.1" x="0px" y="0px" width="100%" height="100%" viewBox="0 0 64 64" enable-background="new 0 0 64 64" xml:space="preserve"><style>.style0{fill:	#fff;}d{fill: #fff;}</style><g><polygon points="1,28.3 4.1,28.3 4.1,56.8 24.6,56.8 24.6,28.3 27.7,28.3 27.7,22.4 1,22.4" class="style0"/><path d="M51.838 39.16c3.107-0.057 4.447-2.825 4.02-5.184c0.24-1 0.229-2.052-0.131-3.065 c-3.174-8.959-9.608-15.217-18.35-18.76c-3.318-1.345-7.189 1.453-8.051 4.592c-0.317 1.155-0.315 2.235-0.066 3.216v15.059 c0 2 1.6 3.6 3.6 3.56c0.609 0 1.177-0.167 1.679-0.438c-2.941 3.293-4.955 7.557-5.768 12.6 c-0.856 5.3 7.3 7.6 8.2 2.254C38.264 44.6 43 39.3 51.8 39.16z M35.969 36.645c0.254-0.49 0.41-1.037 0.41-1.627 v-8.927c2.572 1.7 4.7 4.1 5.9 6.519C39.939 33.6 37.8 35 36 36.645z" class="style0"/><path d="M28.051 15.802c-0.123-3.086-2.653-5.553-5.769-5.553c-3.116 0-5.648 2.467-5.771 5.553H16.5 c0 0 0 0.1 0 0.115c0 0.038-0.007 0.075-0.007 0.115h0.012c0.123 3.1 2.7 5.6 5.8 5.6 c3.116 0 5.648-2.467 5.771-5.552h0.012c0-0.04-0.005-0.077-0.007-0.115c0.001-0.039 0.007-0.076 0.007-0.115H28.051z" class="style0"/><path d="M62.246 29.137c-0.01-2.461-0.363-4.934-0.707-7.325c-0.117-0.823-0.234-1.635-0.334-2.429 c-0.105-0.846-0.885-1.453-1.721-1.339c-0.846 0.105-1.445 0.876-1.34 1.721c0.102 0.8 0.2 1.6 0.3 2.5 c0.332 2.3 0.7 4.7 0.7 6.961c0 0.1 0 0.1 0 0.148c1.23 12.766-3.566 13.351-9.121 14 c-4.369 0.531-9.805 1.194-9.773 9.271c0 0.8 0.7 1.5 1.5 1.537h0.004c0.853-0.004 1.541-0.696 1.537-1.549 c-0.018-5.109 2.279-5.617 7.064-6.199c0.287-0.033 0.578-0.07 0.873-0.108v6.431L46.27 55.1 c-0.385 0.183-0.549 0.642-0.362 1.025c0.131 0.3 0.4 0.4 0.7 0.44c0.111 0 0.226-0.023 0.33-0.075l5.008-2.373l4.588 2.4 c0.113 0.1 0.2 0.1 0.4 0.087c0.279 0 0.552-0.151 0.687-0.418c0.195-0.38 0.047-0.845-0.33-1.038l-4.4-2.266v-6.785 C57.988 45.2 63.5 42.7 62.2 29.137z" class="style0"/><rect x="2.9" y="18.4" width="11.4" height="2.4" class="style0"/><rect x="2.9" y="15.4" width="11.4" height="2.4" class="style0"/><rect x="2.9" y="13.7" width="11.4" height="1.2" class="style0"/><rect x="2.9" y="12" width="11.4" height="0.9" class="style0"/><rect x="2.9" y="10.5" width="11.4" height="0.6" class="style0"/><rect x="2.9" y="9.5" width="11.4" height="0.6" class="style0"/><rect x="2.9" y="8.6" width="11.4" height="0.6" class="style0"/><rect x="2.9" y="7.6" width="11.4" height="0.6" class="style0"/></g></svg>