<svg xmlns="http://www.w3.org/2000/svg" xmlns:xlink="http://www.w3.org/1999/xlink" version="1.1" x="0px" y="0px" width="100%" height="100%" viewBox="0 0 64.991 49.196" xml:space="preserve" class="style0"><style>.style0{enable-background:	new 0 0 64.991 49.196;}g{fill: #fff;}</style><g><path d="M47.813 14.954v-9.37h-4.73v22.841c-4.338 2.446-9.045-0.344-9.045-0.344S32.38 0 19.8 0C7.252 0 6.6 0 6.6 0v25.825 c-1.941 0-3.562 0-4.537 0c-4.535 0 0 16.1 0 16.055h2.812c0.195-3.989 3.492-7.178 7.53-7.178c4.036 0 7.3 3.2 7.5 7.2 h9.183c-0.001-0.035-0.004-0.071-0.004-0.107c0-4.425 3.601-8.025 8.026-8.025c4.425 0 8 3.6 8 8 c0 0.515-0.052 1.016-0.146 1.504h2.842V18.845h17.179v-1.744L47.813 14.954z M24.003 28.966l-4.188-7.328h-9.073V4.188h9.073 c3.743 0 5.8 5.2 6.9 9.598c0.688 2.8 2.8 13 3 15.181L24.003 28.966L24.003 28.966z"/><polygon points="13.9,11.9 11.8,11.9 11.8,19.5 19.5,19.5 19.5,17.4 13.9,17.4"/><path d="M37.128 34.68c-3.85 0-6.968 3.117-6.968 6.966s3.118 7 7 6.969c3.847 0 6.966-3.12 6.966-6.969 S40.975 34.7 37.1 34.68z M37.128 45.681c-2.226 0-4.034-1.811-4.034-4.035c0-2.224 1.81-4.032 4.034-4.032 c2.224 0 4 1.8 4 4.032C41.16 43.9 39.4 45.7 37.1 45.681z"/><path d="M12.161 35.96c-3.655 0-6.618 2.962-6.618 6.617c0 3.7 3 6.6 6.6 6.619c3.653 0 6.617-2.966 6.617-6.619 C18.778 38.9 15.8 36 12.2 35.96z M12.161 46.408c-2.112 0-3.832-1.718-3.832-3.831c0-2.112 1.72-3.833 3.832-3.833 c2.111 0 3.8 1.7 3.8 3.833C15.992 44.7 14.3 46.4 12.2 46.408z"/></g><g></g><g></g><g></g><g></g><g></g><g></g><g></g><g></g><g></g><g></g><g></g><g></g><g></g><g></g><g></g></svg>