<svg xmlns="http://www.w3.org/2000/svg" xmlns:xlink="http://www.w3.org/1999/xlink" version="1.1" x="0px" y="0px" width="100%" height="100%" viewBox="0 0 32.046 23.529" xml:space="preserve" class="style0"><style>.style0{enable-background:	new 0 0 32.046 23.529;}g{fill: #fff;}</style><g><path d="M18.813 7.767l-0.55 1.798c0.491 0.2 0.8 0.6 0.8 1.21c0 0.286-0.091 0.549-0.243 0.761l1.433 1.2 c0.395-0.533 0.63-1.203 0.63-1.932C20.932 9.3 20 8.2 18.8 7.767z"/><path d="M17.622 12.115c-0.652-0.006-1.179-0.572-1.179-1.262c0-0.689 0.526-1.255 1.179-1.26c0.123-0.001 0.2 0 0.4 0.1 l0.547-1.795c-0.285-0.09-0.587-0.136-0.899-0.129c-1.61 0.033-2.895 1.436-2.895 3.129c0 1.7 1.3 3.1 2.9 3.1 c0.963 0 1.828-0.452 2.383-1.203l-1.427-1.169C18.359 11.9 18 12.1 17.6 12.115z"/><path d="M30.156 8.697c1.89-0.733 1.89-0.804 1.89-0.994V6.221c0-0.19 0-0.27-1.891-0.944l-0.067-0.024l-0.266-0.633l0.028-0.064 c0.805-1.823 0.749-1.877 0.615-2.009L29.395 1.5c-0.044-0.043-0.121-0.074-0.188-0.074c-0.061 0-0.242 0-1.826 0.717l-0.063 0 l-0.652-0.263l-0.026-0.065C25.895 0 25.8 0 25.6 0h-1.514c-0.186 0-0.269 0-0.959 1.847l-0.026 0.067l-0.649 0.3 l-0.063-0.026c-1.071-0.452-1.696-0.681-1.859-0.681c-0.066 0-0.144 0.03-0.188 0.073l-1.073 1 c-0.136 0.134-0.192 0.2 0.7 1.975l0.031 0.066l-0.266 0.632l-0.065 0.025c-0.215 0.083-0.402 0.157-0.571 0.2 c-0.063 0.025-0.438 0.269-0.673 0.417L13.48 5.663l-1.696 8.13l-0.001 0l-0.033 0.005c-0.41-0.696-1.174-1.092-2.239-1.092H9.045 c-0.625 0.61-1.718 1.018-2.97 1.018s-2.345-0.408-2.97-1.018H2.639c-1.643 0-2.584 0.928-2.584 2.476s-0.05 5.781-0.05 6.6 s-0.101 1.7 0.6 1.722c0.269 0 1.1 0 2.2 0c1.059 0 2.1 0 3 0c0.129 0 0.3 0 0.4 0c1.196 0 2.2 0 2.8 0 c0.102 0 0.2 0 0.2 0c0.032 0 0.1 0 0.1 0c0.93 0 1.6 0 1.9 0c0.099 0 0.2 0 0.2 0c0.729 0 0.627-0.878 0.627-1.722 c0-0.13-0.002-0.349-0.003-0.618h19.882v-1.344H12.13c-0.004-0.379-0.008-0.784-0.012-1.197l1.895 0.725l9.376-1.491l0.939-3.895 h1.368c0.19 0 0.3 0 0.959-1.848l0.026-0.067l0.65-0.263l0.063 0.025c1.07 0.5 1.7 0.7 1.9 0.7 c0.065 0 0.145-0.029 0.189-0.073l1.073-1.051c0.136-0.135 0.191-0.19-0.655-1.973l-0.031-0.067l0.265-0.63L30.156 8.697z M13.951 6.423l9.806 0.655l-2.146 9.061l-9.188-2.6L13.951 6.423z M12.095 15.182c0-0.278-0.04-0.528-0.1-0.764l0.035-0.006 l7.777 2.221l-3.552 0.503l-4.159-1.354C12.096 15.6 12.1 15.4 12.1 15.182z M12.1 16.331l1.073 0.359l-1.069 0.2 C12.102 16.7 12.1 16.5 12.1 16.331z M25.451 9.333l0.566-2.347L25.448 6.59L22.91 17.418l-8.834 1.292v-0.004l-1.963-0.718 c-0.002-0.187-0.004-0.371-0.005-0.554l1.999 0.717l8.259-1.109l2.547-10.756L22.64 6.163c0.027-0.101 0.056-0.201 0.063-0.216 c0.397-0.802 1.235-1.357 2.204-1.357c1.353 0 2.5 1.1 2.5 2.404C27.359 8.1 26.5 9.1 25.5 9.333z"/><path d="M1.618 7.651C1.609 7.7 1.6 7.8 1.6 7.826c-0.273 2.5 1.5 4.8 4 5.1 c2.487 0.3 4.734-1.583 5.01-4.127c0.041-0.393 0.029-0.778-0.023-1.152c0.292-0.002 0.473-0.006 0.513-0.012 c0.317-0.04 0.57-0.063 0.596-0.413c0.005-0.467-0.008-0.392-0.001-0.461c0.008-0.404-0.229-0.357-0.491-0.385 s-0.583 0.012-0.583 0.012S9.868 1.3 5.2 2.143C3.768 2.4 2.8 3 2.2 3.692C3.434 3.1 4.8 2.8 6.1 3 C7.251 3.1 8.2 3.7 8.8 4.55C8.369 4.3 7.9 4 7.4 3.877C6.959 3.6 6.4 3.5 6 3.4 C4.601 3.2 2.9 3.6 1.7 4.49C0.9 6 1.1 7.6 1.1 7.649S1.313 7.6 1.6 7.651z M2.425 7.9 C2.434 7.8 2.5 7.7 2.5 7.653c1.897 0 5.4 0 7.3 0.001C9.801 8 9.8 8.3 9.8 8.7 c-0.226 2.084-2.059 3.602-4.084 3.383C3.664 11.9 2.2 10 2.4 7.916z"/></g><g></g><g></g><g></g><g></g><g></g><g></g><g></g><g></g><g></g><g></g><g></g><g></g><g></g><g></g><g></g></svg>